<svg height="100%" version="1.1" width="100%" xmlns="http://www.w3.org/2000/svg" preserveAspectRatio="xMidYMid meet" viewBox="0 0 600 442" xmlns:xlink="http://www.w3.org/1999/xlink"><desc>Created with Snap</desc><defs/><g id="root" contentwidth="284.4" contentheight="101">
          <rect class="background" height="2000%" width="2000%" y="-1000%" x="-1000%" style="" fill="#ffffff"/>
          <rect class="watermarklayer" height="100%" width="100%" y="0" x="0" style="" fill="none"/>
          <g class="content" id="content" transform="matrix(1,0,0,1,86.8,0.5)">
            <g class="icon">
            <svg height="50" version="1.1" width="136" xmlns="http://www.w3.org/2000/svg" x="71" y="170" preserveAspectRatio="none" transform="matrix(1,0,0,1,0,0)"><desc>Created with Snap</desc><defs/><svg xmlns="http://www.w3.org/2000/svg" viewBox="71 170 136 50"><path id="prefix-Ny_-路径-3" fill="#283E76" d="M70.78 170.165h52.762l15.288 22.137 15.798-22.137h51.919l-11.955 16.988H162.62l-23.79 33.236-24.145-33.236H83.673z"/></svg></svg><svg height="75" version="1.1" width="105" xmlns="http://www.w3.org/2000/svg" x="83" y="196" preserveAspectRatio="none" transform="matrix(1,0,0,1,0,0)"><desc>Created with Snap</desc><defs/><svg xmlns="http://www.w3.org/2000/svg" viewBox="83 196 105 75"><path id="prefix-Q7g-路径-4" fill="#385389" d="M90.726 196h20.575l27.948 39.398L167.728 196H188l-39.646 55.373L134.302 271H113.77l15.307-21.138-5.111-7.137L103.597 271H83l30.77-42.103z"/></svg></svg><svg height="75" version="1.1" width="105" xmlns="http://www.w3.org/2000/svg" x="91" y="196" preserveAspectRatio="none" transform="matrix(1,0,0,1,0,0)"><desc>Created with Snap</desc><defs/><svg xmlns="http://www.w3.org/2000/svg" viewBox="91 196 105 75"><path id="prefix-MPG-路径-4" fill="#F79719" transform="matrix(-1 0 0 1 286.2 0)" d="m97.89 195.984 21.01.016 27.949 39.398 28.044-39.414L195.6 196l-52.5 75h-21.73l15.307-21.138-5.111-7.137L111.197 271H90.6l30.77-42.103z"/></svg></svg></g>
            <g id="icon_name_and_slogan_gap">
            </g>
            <g class="name_and_slogan" id="name_and_slogan_id">
              <g class="name"><path d="M246.6 253.7 L246.6 257.3 L273.7 257.3 L273.7 267 L201.4 267 L201.4 257.3 L233.1 257.3 L233.1 253.7 L206.8 253.7 L206.8 246.8 Q205.5 246.9 204.2 247 Q202.9 247.1 201.4 247.1 L201.4 233.6 L207.8 233.6 L207.8 227.4 L219.7 227.4 L219.7 229.3 L219.7 230.4 L233.1 230.4 L233.1 227.4 L246.6 227.4 L246.6 230.4 L273.4 230.4 L273.4 240.1 L246.6 240.1 L246.6 243.8 L271.8 243.8 L271.8 253.7 L246.6 253.7 Z M270.6 193.2 L270.6 213.8 Q270.6 217.3 270.2 219.6 Q269.8 221.9 268.4 223.3 Q267 224.7 264.6 225.2 Q262.1 225.8 258 225.8 L206.2 225.8 L206.2 204 L219.4 204 L219.4 205.8 L257.1 205.8 L257.1 202.6 L206.2 202.6 L206.2 193.2 L270.6 193.2 Z M257.1 217.2 L257.1 213.6 L219.4 213.6 L219.4 217.2 L257.1 217.2 Z M217.5 240.1 Q216.3 242.4 214.5 243.8 L233.1 243.8 L233.1 240.1 L217.5 240.1 Z M330.2 193 L322.2 224.2 L331.6 224.2 L343.7 254.9 L355.4 254.9 L355.4 267.9 L345.8 267.9 Q341.8 267.9 339.4 267.6 Q337 267.2 335.4 266 Q333.7 264.7 332.4 262.1 Q331.1 259.6 329.4 255.2 L320.5 230.8 L314.3 255.2 Q312.9 259.7 311.7 262.2 Q310.6 264.8 309 266 Q307.4 267.3 305 267.6 Q302.6 267.9 298.6 267.9 L286.2 267.9 L286.2 254.9 L300 254.9 L315.8 193 L330.2 193 Z M354.3 203.1 L354.3 211.8 Q354.3 216.4 353.4 219.4 Q352.6 222.4 350.6 224.1 Q348.6 225.8 345.4 226.5 Q342.3 227.2 337.8 227.2 L337.8 210.3 L345.4 210.3 L345.4 203.1 L354.3 203.1 Z M294.6 203.1 L294.6 210.3 L302.2 210.3 L302.2 227.2 Q297.7 227.2 294.6 226.5 Q291.4 225.8 289.5 224.1 Q287.5 222.4 286.6 219.4 Q285.8 216.4 285.8 211.8 L285.8 203.1 L294.6 203.1 Z" style="" fill="#000000" transform="matrix(1,0,0,1,0,0)"/></g>
              <g class="slogan"><path d="M214.2 183.1 Q213.8 183.1 213.4 183.1 Q213 183.1 212.7 183 Q212.4 183 212.1 182.9 Q211.8 182.9 211.7 182.8 L211.7 181.8 Q211.9 181.9 212.1 181.9 Q212.4 182 212.7 182.1 Q213.1 182.1 213.4 182.1 Q213.8 182.2 214.2 182.2 Q215.1 182.2 215.6 181.9 Q216 181.5 216 180.8 Q216 180.4 216 180.1 Q215.9 179.9 215.7 179.7 Q215.5 179.5 215.1 179.4 Q214.7 179.2 214.1 179.1 Q213.5 178.9 213.1 178.8 Q212.6 178.6 212.3 178.4 Q212.1 178.1 211.9 177.7 Q211.8 177.3 211.8 176.8 Q211.8 175.7 212.5 175.1 Q213.2 174.5 214.6 174.5 Q214.9 174.5 215.2 174.6 Q215.5 174.6 215.8 174.6 Q216 174.7 216.3 174.7 Q216.5 174.8 216.7 174.8 L216.7 175.8 Q216.3 175.7 215.7 175.6 Q215.2 175.5 214.6 175.5 Q214.2 175.5 213.8 175.5 Q213.5 175.6 213.3 175.7 Q213.1 175.9 213 176.1 Q212.9 176.4 212.9 176.8 Q212.9 177.1 212.9 177.3 Q213 177.5 213.2 177.7 Q213.3 177.8 213.7 177.9 Q214 178.1 214.6 178.2 Q215.3 178.4 215.8 178.6 Q216.2 178.7 216.5 179 Q216.8 179.3 217 179.7 Q217.1 180.1 217.1 180.8 Q217.1 182 216.4 182.6 Q215.6 183.1 214.2 183.1 Z M225 176.4 Q225.8 176.4 226.4 176.6 Q226.9 176.9 227.2 177.3 Q227.5 177.8 227.6 178.4 Q227.7 179 227.7 179.8 Q227.7 180.4 227.6 181 Q227.5 181.6 227.2 182.1 Q226.9 182.6 226.4 182.8 Q225.8 183.1 225 183.1 Q224.1 183.1 223.6 182.8 Q223.1 182.5 222.9 181.9 L222.9 185.4 L221.9 185.4 L221.9 176.5 L222.9 176.5 L222.9 177.7 Q223.1 177.1 223.6 176.8 Q224.1 176.4 225 176.4 Z M224.9 182.2 Q225.5 182.2 225.8 182 Q226.2 181.8 226.3 181.5 Q226.5 181.1 226.6 180.7 Q226.6 180.2 226.6 179.8 Q226.6 179.2 226.5 178.8 Q226.5 178.3 226.3 178 Q226.1 177.7 225.8 177.5 Q225.4 177.3 224.9 177.3 Q224.3 177.3 223.9 177.4 Q223.5 177.6 223.3 177.9 Q223.1 178.3 223 178.7 Q222.9 179.2 222.9 179.8 Q222.9 180.3 223 180.8 Q223.1 181.2 223.3 181.6 Q223.5 181.9 223.9 182.1 Q224.3 182.2 224.9 182.2 Z M235.1 176.4 Q235.8 176.4 236.3 176.6 Q236.8 176.7 237.1 177 Q237.4 177.2 237.5 177.6 Q237.6 178 237.6 178.4 L237.6 183 L236.8 183 L236.6 182 Q236.5 182.3 236.2 182.5 Q236 182.7 235.7 182.8 Q235.4 183 235 183 Q234.7 183.1 234.3 183.1 Q233.1 183.1 232.6 182.6 Q232.1 182.1 232.1 181.2 Q232.1 180.6 232.3 180.2 Q232.4 179.8 232.8 179.6 Q233.1 179.3 233.6 179.2 Q234.1 179.1 234.6 179.1 L236.6 179.1 L236.6 178.6 Q236.6 178.3 236.6 178 Q236.5 177.8 236.3 177.6 Q236.1 177.5 235.8 177.4 Q235.5 177.3 235 177.3 Q234.7 177.3 234.3 177.3 Q233.9 177.3 233.6 177.4 L233.6 176.5 Q234 176.5 234.3 176.4 Q234.7 176.4 235.1 176.4 Z M234.4 182.2 Q235.2 182.2 235.8 181.9 Q236.4 181.6 236.6 181 L236.6 180 L234.7 180 Q234.3 180 234 180 Q233.7 180 233.5 180.2 Q233.3 180.3 233.2 180.6 Q233.1 180.8 233.1 181.2 Q233.1 181.7 233.4 182 Q233.7 182.2 234.4 182.2 Z M246.1 176.4 L246 177.3 L245.9 177.3 Q245.6 177.3 245.3 177.4 Q245 177.5 244.7 177.6 Q244.4 177.8 244.2 178.1 Q244 178.3 243.9 178.8 L243.9 183 L242.8 183 L242.8 176.5 L243.9 176.5 L243.9 177.7 Q244 177.3 244.3 177 Q244.5 176.8 244.8 176.6 Q245 176.5 245.3 176.5 Q245.7 176.4 245.9 176.4 L246.1 176.4 Z M255.5 183 L254.1 183 L251.8 180 L251.4 180 L251.4 183 L250.4 183 L250.4 173.9 L251.4 173.9 L251.4 179.2 L251.8 179.2 L254 176.5 L255.3 176.5 L252.6 179.5 L255.5 183 Z" style="" fill="#000000" transform="matrix(1,0,0,1,0,0)"/></g>
            </g>
            <g class="border">
            </g>
          </g>
          <defs id="defs">
            <mask xmlns="http://www.w3.org/2000/svg" id="mask">
                <rect id="showAll" fill="white" x="71" y="170" width="136" height="101"/>
                <rect id="hideNameBg" fill="black" x="0" y="0" width="0" height="0" stroke-width="2" stroke="black"/>
                <rect id="hideSloganBg" fill="black" x="0" y="0" width="0" height="0" stroke-width="2" stroke="black"/>
            </mask>
          
          </defs>
        </g>
        </svg>