<?xml version="1.0" standalone="no"?>
<!DOCTYPE svg PUBLIC "-//W3C//DTD SVG 20010904//EN"
 "http://www.w3.org/TR/2001/REC-SVG-20010904/DTD/svg10.dtd">
<svg version="1.0" xmlns="http://www.w3.org/2000/svg"
 width="307.000000pt" height="307.000000pt" viewBox="0 0 307.000000 307.000000"
 preserveAspectRatio="xMidYMid meet">
<metadata>
Created by potrace 1.14, written by Peter Selinger 2001-2017
</metadata>
<g transform="translate(0.000000,307.000000) scale(0.100000,-0.100000)"
fill="#000000" stroke="none">
<path d="M25 2620 c-3 -5 0 -10 7 -10 7 0 38 -34 68 -76 55 -74 73 -98 111
-142 10 -12 19 -25 19 -28 0 -4 18 -28 41 -55 l41 -49 344 0 343 0 65 -87 c36
-49 75 -103 88 -121 30 -42 75 -104 88 -119 5 -7 10 -15 10 -17 0 -3 6 -14 14
-23 8 -10 36 -47 62 -83 27 -36 72 -97 101 -136 29 -40 53 -75 53 -78 0 -4 13
-21 28 -38 l29 -30 38 54 c72 100 120 163 130 170 5 4 6 8 2 8 -5 0 -2 6 5 14
7 8 24 31 38 51 14 20 36 51 50 68 14 18 30 39 35 48 6 9 42 60 80 114 39 54
83 116 99 139 16 22 36 46 45 53 12 9 105 12 361 13 190 0 350 4 356 8 10 6
41 48 92 122 9 14 49 71 89 128 40 56 73 105 73 107 0 3 -256 5 -568 5 l-569
0 -23 -25 c-13 -14 -19 -25 -14 -25 5 0 4 -4 -2 -8 -10 -6 -225 -303 -281
-387 -31 -47 -40 -49 -60 -18 -10 15 -23 32 -30 36 -7 4 -13 13 -13 19 0 9
-15 30 -61 86 -5 6 -7 12 -3 12 4 0 -2 9 -14 20 -12 12 -22 24 -22 29 0 7 -10
21 -49 67 -5 7 -7 15 -4 18 4 3 1 6 -5 6 -7 0 -12 7 -12 15 0 8 -4 15 -10 15
-5 0 -17 14 -26 32 -9 17 -25 40 -35 51 -10 12 -19 26 -19 33 0 6 -7 15 -16
18 -28 11 -1162 7 -1169 -4z"/>
<path d="M474 2055 c-6 -14 12 -43 117 -193 24 -35 49 -71 54 -80 6 -9 13 -19
16 -22 4 -4 220 -313 286 -409 27 -40 27 -41 8 -66 -8 -11 -42 -58 -76 -105
-33 -46 -65 -87 -70 -91 -6 -3 -10 -9 -10 -13 1 -3 -18 -32 -41 -64 -23 -31
-68 -93 -100 -137 -33 -44 -65 -88 -73 -98 -8 -9 -15 -21 -15 -25 0 -4 -10
-18 -23 -32 -20 -23 -84 -109 -139 -188 -13 -18 -28 -39 -34 -45 -27 -31 -63
-91 -58 -99 8 -13 392 -10 417 4 27 14 47 34 47 46 0 5 12 21 26 36 15 14 24
26 20 26 -4 0 -1 6 6 14 7 8 38 49 68 92 72 101 177 246 190 261 6 7 24 33 41
58 17 25 38 49 48 54 20 11 28 4 90 -88 l42 -62 -33 -42 c-19 -23 -44 -59 -57
-79 -12 -21 -27 -38 -32 -38 -6 0 -7 -5 -4 -10 3 -6 1 -10 -4 -10 -6 0 -11 -6
-11 -14 0 -8 -4 -16 -8 -18 -5 -1 -26 -27 -46 -56 -21 -28 -42 -52 -48 -52 -5
0 -7 -4 -4 -9 5 -8 -20 -47 -51 -79 -7 -7 -13 -20 -13 -28 0 -12 34 -14 204
-14 128 0 207 4 211 10 4 6 11 8 16 5 5 -4 13 4 18 17 5 13 18 31 30 42 11 10
19 22 16 25 -2 4 5 12 15 19 23 14 34 5 86 -74 l36 -54 239 0 c195 0 239 3
239 14 0 7 -23 44 -50 82 -28 38 -57 78 -65 89 -7 11 -57 79 -109 151 -53 72
-96 140 -96 150 0 11 11 32 25 48 14 16 25 32 25 35 0 3 12 19 26 34 l26 29
34 -49 c19 -26 40 -55 47 -64 8 -8 35 -46 62 -85 26 -38 68 -95 91 -127 24
-31 44 -61 44 -66 0 -5 3 -11 8 -13 4 -1 43 -54 87 -115 l80 -113 222 0 c132
0 224 4 228 10 4 7 -55 98 -108 165 -4 6 -53 73 -109 150 -55 77 -119 165
-142 195 -23 30 -49 66 -58 80 -22 32 -204 282 -216 295 -5 6 -16 22 -24 35
-16 24 -14 28 58 130 41 58 81 113 89 123 8 9 15 20 15 23 0 2 5 10 10 17 17
20 62 82 130 177 36 51 74 104 85 120 69 96 110 157 111 168 2 9 -49 12 -226
12 l-229 0 -26 -27 c-14 -15 -25 -31 -25 -35 0 -3 -6 -13 -13 -20 -7 -7 -26
-33 -43 -58 -76 -112 -128 -186 -138 -195 -6 -5 -17 -22 -25 -37 -8 -16 -18
-28 -23 -28 -4 0 -8 -6 -8 -14 0 -8 -4 -16 -8 -18 -5 -1 -30 -34 -57 -73 -27
-38 -60 -86 -74 -106 -14 -20 -61 -87 -104 -148 -43 -61 -83 -111 -90 -111 -7
0 -52 58 -102 127 -49 70 -132 186 -183 257 -51 72 -104 149 -119 170 -14 22
-34 49 -44 60 -11 11 -19 25 -19 32 0 7 -4 14 -9 16 -4 2 -36 44 -71 93 -35
50 -70 96 -78 103 -12 9 -73 12 -229 12 -180 0 -215 -2 -219 -15z"/>
</g>
</svg>
