<?xml version="1.0" standalone="no"?>
<!DOCTYPE svg PUBLIC "-//W3C//DTD SVG 20010904//EN"
 "http://www.w3.org/TR/2001/REC-SVG-20010904/DTD/svg10.dtd">
<svg version="1.0" xmlns="http://www.w3.org/2000/svg"
 width="465.000000pt" height="465.000000pt" viewBox="0 0 465.000000 465.000000"
 preserveAspectRatio="xMidYMid meet">
<metadata>
Created by potrace 1.14, written by Peter Selinger 2001-2017
</metadata>
<g transform="translate(0.000000,465.000000) scale(0.100000,-0.100000)"
fill="#000000" stroke="none">
<path d="M2096 3143 c-29 -45 -187 -303 -216 -353 -11 -19 -57 -92 -103 -162
-45 -70 -109 -170 -142 -222 -33 -53 -63 -95 -67 -96 -4 0 -18 15 -30 34 -13
18 -52 75 -87 127 -107 155 -215 340 -298 508 l-78 159 -533 1 c-424 1 -532
-2 -526 -11 5 -7 51 -74 103 -148 209 -297 931 -1410 931 -1435 0 -6 -30 -42
-68 -80 -105 -106 -185 -133 -288 -95 -113 42 -142 46 -180 25 -67 -36 -52
-125 29 -166 58 -30 163 -36 247 -15 131 34 235 104 335 228 67 84 99 131 547
808 283 427 478 710 556 810 13 17 300 -351 571 -729 l131 -183 -37 -42 c-143
-159 -352 -374 -588 -606 -124 -121 -136 -150 -85 -200 56 -55 91 -37 207 108
43 53 80 99 84 102 3 3 43 50 89 105 46 55 86 102 90 105 4 3 30 32 60 65 111
126 253 266 260 258 4 -4 125 -171 269 -370 l263 -363 550 0 550 0 -73 82
c-41 46 -80 90 -88 98 -32 34 -202 242 -282 345 -96 124 -408 552 -412 564 -3
12 295 332 505 541 74 73 129 137 133 153 6 21 1 32 -23 57 -32 31 -60 37 -93
19 -28 -14 -40 -27 -149 -159 -52 -63 -109 -131 -126 -150 -17 -19 -80 -91
-140 -159 -173 -196 -182 -206 -186 -201 -3 3 -80 113 -173 245 -93 132 -194
275 -224 318 l-56 77 -517 0 c-285 0 -518 4 -518 8 0 12 -47 32 -75 32 -17 0
-32 -11 -49 -37z"/>
</g>
</svg>
